<svg id="Layer_1" data-name="Layer 1" xmlns="http://www.w3.org/2000/svg" viewBox="0 0 525.83 239.38">
  <defs>
    <style>
      .cls-1 {
        fill: #fff;
      }
    </style>
  </defs>
  <title>Artboard 1</title>
  <g>
    <path class="cls-1" d="M237.91,126.06a103.94,103.94,0,0,1-3.74,11,46.57,46.57,0,0,1-5.9,10.56,32,32,0,0,1-8.6,8,21.56,21.56,0,0,1-11.79,3.12,16.73,16.73,0,0,1-7.43-1.58,17.42,17.42,0,0,1-5.53-4.26,18.15,18.15,0,0,1-3.48-6.25,23.83,23.83,0,0,1-1.18-7.58V96.45c0-1.64,0-3.18-.1-4.61a20.31,20.31,0,0,0-.51-3.8,7,7,0,0,0-1.18-2.61,2.57,2.57,0,0,0-2.1-1q-2.16,0-5.23,3.07a39.09,39.09,0,0,0-5.94,8,69,69,0,0,0-5.12,11.12,44.49,44.49,0,0,0-2.69,12.47v30.65c0,1,0,2.07,0,3.12a7.85,7.85,0,0,1-.61,2.87,5.32,5.32,0,0,1-1.75,2.15,5.67,5.67,0,0,1-3.43.87,17.76,17.76,0,0,1-3.33-.35,9.32,9.32,0,0,1-3.28-1.34,7.51,7.51,0,0,1-2.46-2.76,10.09,10.09,0,0,1-1-4.77V96.45a45.22,45.22,0,0,0-.15-4.61,22.21,22.21,0,0,0-.57-3.8,6.71,6.71,0,0,0-1.18-2.61,2.51,2.51,0,0,0-2.1-1c-1.43,0-3.16,1-5.17,3.07a41.83,41.83,0,0,0-5.94,8,63.27,63.27,0,0,0-5.13,11.12,49.12,49.12,0,0,0-2.71,12.45v30.67c0,1,0,2.07-.05,3.12a7.66,7.66,0,0,1-.62,2.87,5.29,5.29,0,0,1-1.74,2.15,5.75,5.75,0,0,1-3.43.87,17.76,17.76,0,0,1-3.33-.35,9.32,9.32,0,0,1-3.28-1.34,7.51,7.51,0,0,1-2.46-2.76,10,10,0,0,1-1-4.77V83a14.48,14.48,0,0,0-.46-4.3,7.39,7.39,0,0,1-.46-2.46,2.86,2.86,0,0,1,1.69-2.53,7.44,7.44,0,0,1,3.88-1c3.49,0,6.25.9,8.26,2.71a8.49,8.49,0,0,1,3,6.51v8.81a67.91,67.91,0,0,1,4.45-8,38.39,38.39,0,0,1,5.18-6.4,23.13,23.13,0,0,1,5.89-4.26,15.16,15.16,0,0,1,6.71-1.53,15.91,15.91,0,0,1,7.84,1.74,14.17,14.17,0,0,1,5,4.61,19.61,19.61,0,0,1,2.72,6.4,43.4,43.4,0,0,1,1,7,60.87,60.87,0,0,1,4.3-7.79,36.17,36.17,0,0,1,5.13-6.25,23.33,23.33,0,0,1,5.89-4.2,15,15,0,0,1,6.71-1.53,16.51,16.51,0,0,1,8.41,1.94,14.48,14.48,0,0,1,5.11,5,20.7,20.7,0,0,1,2.57,6.87,38.86,38.86,0,0,1,.71,7.38v43.44a20.65,20.65,0,0,0,.11,2.3,13.65,13.65,0,0,0,.61,3.23,7.72,7.72,0,0,0,1.59,2.87,3.93,3.93,0,0,0,3.13,1.23,7.61,7.61,0,0,0,5.48-2.25,20.73,20.73,0,0,0,4-5.64,41.92,41.92,0,0,0,2.82-7.32c.75-2.63,1.37-5.1,1.85-7.43a9.65,9.65,0,0,1,2-4.77,4.06,4.06,0,0,1,3-1.48,4.87,4.87,0,0,1,2.52.77,9.78,9.78,0,0,1,2.35,2,10.81,10.81,0,0,1,1.75,2.77,7.73,7.73,0,0,1,.66,3.07v.52A3.74,3.74,0,0,1,237.91,126.06Z"/>
    <path class="cls-1" d="M274.9,91.84a38.57,38.57,0,0,1-2,12A42.48,42.48,0,0,1,267,115.47a45.9,45.9,0,0,1-9.74,9.84,41.89,41.89,0,0,1-13.37,6.61,23.1,23.1,0,0,0,2.71,5.07,17.93,17.93,0,0,0,4.05,4.15,19.5,19.5,0,0,0,5.48,2.77,23.27,23.27,0,0,0,7.23,1,22.54,22.54,0,0,0,10.55-2.3,23.08,23.08,0,0,0,7.43-6.1,32.76,32.76,0,0,0,4.86-8.5,53.34,53.34,0,0,0,2.77-9.53c.48-2.33,1.46-3.88,2.92-4.67a6,6,0,0,1,4.51-.56,7.8,7.8,0,0,1,4,2.61,6.07,6.07,0,0,1,1.38,4.77q-.42,3.18-1.38,7.27a44.21,44.21,0,0,1-2.92,8.3,46.86,46.86,0,0,1-5,8.25,33.93,33.93,0,0,1-7.43,7.22,37.89,37.89,0,0,1-10.35,5.13,43.8,43.8,0,0,1-13.6,1.94,35.57,35.57,0,0,1-13.88-2.81,36.15,36.15,0,0,1-11.89-8.1,39.22,39.22,0,0,1-8.3-13,46.68,46.68,0,0,1-3.12-17.57,60.12,60.12,0,0,1,2.76-18.5A53.12,53.12,0,0,1,233.91,84a36,36,0,0,1,10.25-9.79,22.09,22.09,0,0,1,11.78-3.53,19.84,19.84,0,0,1,7.94,1.53,16.61,16.61,0,0,1,6,4.36,19.05,19.05,0,0,1,3.74,6.71A27,27,0,0,1,274.9,91.84Zm-33.82,24.79a11.48,11.48,0,0,0,.1,1.85,17.88,17.88,0,0,1,.11,1.94,29.42,29.42,0,0,0,7.1-4.68,30.26,30.26,0,0,0,5.43-6.56,32.14,32.14,0,0,0,3.48-8,33.07,33.07,0,0,0,1.23-9.07,10.46,10.46,0,0,0-1.18-5.43,3.6,3.6,0,0,0-3.23-2,6.71,6.71,0,0,0-4.55,1.75A15.53,15.53,0,0,0,246.08,91a31.39,31.39,0,0,0-2.46,6.35c-.65,2.35-1.18,4.73-1.59,7.12a64.89,64.89,0,0,0-.82,6.81A50.42,50.42,0,0,0,241.08,116.63Z"/>
    <path class="cls-1" d="M288.93,83a14.16,14.16,0,0,0-.46-4.3,7.39,7.39,0,0,1-.46-2.46,2.87,2.87,0,0,1,1.64-2.51,7.48,7.48,0,0,1,3.89-1q5.23,0,8.25,2.71a8.42,8.42,0,0,1,3,6.51V91.4a72.08,72.08,0,0,1,4.66-8.2,38.68,38.68,0,0,1,5.43-6.61,23.59,23.59,0,0,1,6.25-4.41,16.7,16.7,0,0,1,7.22-1.58A17.07,17.07,0,0,1,337,72.54a14.91,14.91,0,0,1,5.32,5A20.25,20.25,0,0,1,345,84.41a37.35,37.35,0,0,1,.77,7.38v43.44a22.7,22.7,0,0,0,.1,2.3,14.19,14.19,0,0,0,.62,3.23,7.72,7.72,0,0,0,1.59,2.87,3.9,3.9,0,0,0,3.12,1.23,7.61,7.61,0,0,0,5.48-2.25,20.73,20.73,0,0,0,4-5.64,39.65,39.65,0,0,0,2.77-7.32c.71-2.63,1.31-5.1,1.79-7.43a9.23,9.23,0,0,1,2-4.77,4.17,4.17,0,0,1,3-1.48,5,5,0,0,1,2.56.77,9.45,9.45,0,0,1,2.41,2,10.51,10.51,0,0,1,1.74,2.77,7.74,7.74,0,0,1,.67,3.07v.52a3.16,3.16,0,0,1-.21.92,86.91,86.91,0,0,1-3.64,11,45.19,45.19,0,0,1-5.94,10.56,32.68,32.68,0,0,1-8.66,8,21.56,21.56,0,0,1-11.73,3.16,16.7,16.7,0,0,1-7.43-1.58,17.42,17.42,0,0,1-5.53-4.26,17.93,17.93,0,0,1-3.49-6.25,24.39,24.39,0,0,1-1.17-7.58V96.45c0-1.64,0-3.18-.11-4.61a16.85,16.85,0,0,0-.56-3.8,6.61,6.61,0,0,0-1.33-2.61,3.06,3.06,0,0,0-2.41-1c-1.5,0-3.35,1-5.53,3.07a42.5,42.5,0,0,0-6.46,8,61.53,61.53,0,0,0-5.58,11.12,46.79,46.79,0,0,0-3,12.45v30.67c0,1,0,2.07-.06,3.12a7.46,7.46,0,0,1-.61,2.87,5.29,5.29,0,0,1-1.74,2.15,5.72,5.72,0,0,1-3.44.87,17.76,17.76,0,0,1-3.33-.35,9.2,9.2,0,0,1-3.27-1.34,7.42,7.42,0,0,1-2.46-2.76,10,10,0,0,1-1-4.77Z"/>
    <path class="cls-1" d="M375.72,52a11.64,11.64,0,0,1-4.87-1,12.57,12.57,0,0,1-4-2.76,13.63,13.63,0,0,1-2.72-4,12.27,12.27,0,0,1-1-5,12.75,12.75,0,0,1,3.72-9.17,12.51,12.51,0,0,1,8.86-3.64,13.2,13.2,0,0,1,5.12,1,12.06,12.06,0,0,1,6.72,6.72,13.61,13.61,0,0,1,1,5.12,12.61,12.61,0,0,1-1,5,13,13,0,0,1-2.67,4A12.74,12.74,0,0,1,375.71,52Zm4.82,83.3a22.7,22.7,0,0,0,.1,2.3,13.65,13.65,0,0,0,.61,3.23,7.54,7.54,0,0,0,1.64,2.87,4.11,4.11,0,0,0,3.18,1.23,7.46,7.46,0,0,0,5.38-2.25,20.73,20.73,0,0,0,4-5.64,41.92,41.92,0,0,0,2.82-7.32c.75-2.63,1.37-5.1,1.85-7.43a9.77,9.77,0,0,1,1.89-4.61,4.37,4.37,0,0,1,2.77-1.59,4.62,4.62,0,0,1,3,.77,10.36,10.36,0,0,1,2.66,2.41,10,10,0,0,1,1.75,3.32,6.47,6.47,0,0,1,.15,3.49,101.72,101.72,0,0,1-3.74,11,46.91,46.91,0,0,1-5.89,10.56,31.86,31.86,0,0,1-8.61,8,21.57,21.57,0,0,1-11.82,3.12,16.94,16.94,0,0,1-7.48-1.58,16.73,16.73,0,0,1-5.54-4.26,18.46,18.46,0,0,1-3.43-6.25,24.4,24.4,0,0,1-1.18-7.58V83a14.16,14.16,0,0,0-.46-4.3,7.65,7.65,0,0,1-.46-2.46,2.89,2.89,0,0,1,1.66-2.52,7.48,7.48,0,0,1,3.89-1c3.49,0,6.25.9,8.26,2.71a8.49,8.49,0,0,1,3,6.51Z"/>
    <path class="cls-1" d="M382,54.23c1.57.14,3.31.24,5.23.31q2.46.21,5.94.25t7.79.16V19.39a14.37,14.37,0,0,0-.36-3.58,13,13,0,0,0-.72-2.1,5.83,5.83,0,0,0-.72-1.23,1.58,1.58,0,0,1-.35-1,1.21,1.21,0,0,1,.61-1A6.16,6.16,0,0,1,401,9.76a15.09,15.09,0,0,1,2.2-.46,17.92,17.92,0,0,1,2.31-.15q5.22,0,8.25,2.71a8.49,8.49,0,0,1,3,6.51V55.15q9.63,0,20.34-.2t21.47-.72c.95-1,1.72-1.4,2.3-1.13a2.39,2.39,0,0,1,1.12,2,14.57,14.57,0,0,1,.05,3.79,22.2,22.2,0,0,1-.81,4.36,12.15,12.15,0,0,1-1.69,3.63,3,3,0,0,1-2.41,1.54q-12.6.31-22.29.36t-18.08,0v66.5c0,3.42.65,5.87,1.95,7.38A6.52,6.52,0,0,0,424,145a7.55,7.55,0,0,0,5.48-2.25,20.73,20.73,0,0,0,4-5.64,39.62,39.62,0,0,0,2.76-7.32c.72-2.63,1.32-5.1,1.8-7.43a9.18,9.18,0,0,1,2.05-4.77,4.17,4.17,0,0,1,3-1.48,5,5,0,0,1,2.56.77,9.45,9.45,0,0,1,2.41,2,10.51,10.51,0,0,1,1.74,2.77,7.57,7.57,0,0,1,.67,3.07v.52a3.16,3.16,0,0,1-.21.92,88.49,88.49,0,0,1-3.63,11,45.58,45.58,0,0,1-5.95,10.56,32.79,32.79,0,0,1-8.65,8,21.65,21.65,0,0,1-11.8,3.06,22.38,22.38,0,0,1-7.74-1.28,15,15,0,0,1-6.09-4.1,19.51,19.51,0,0,1-4-7.22,34.57,34.57,0,0,1-1.43-10.65V68.74c-2.33,0-4.39,0-6.2,0s-3.33-.08-4.56-.15l-3.79-.21a5.62,5.62,0,0,1-4.36-2.2,13,13,0,0,1-2.63-4.83,9.16,9.16,0,0,1-.21-4.87A2.65,2.65,0,0,1,382,54.23Z"/>
    <path class="cls-1" d="M513.39,122.27a13.12,13.12,0,0,1,2.15-4.77,3.64,3.64,0,0,1,2.87-1.48,5,5,0,0,1,2.56.77,9.45,9.45,0,0,1,2.41,2,10.51,10.51,0,0,1,1.74,2.77,7.74,7.74,0,0,1,.67,3.07v.82a3.7,3.7,0,0,1-.21,1.23,95,95,0,0,1-6.2,16.14,87.55,87.55,0,0,1-15.93,22.44q-4.31,4.35-8.61,8v36.28a44.53,44.53,0,0,1-1.89,14,26.7,26.7,0,0,1-5,9.22,18,18,0,0,1-7,5.08,21.55,21.55,0,0,1-7.89,1.53,17.49,17.49,0,0,1-8.09-1.89,20.24,20.24,0,0,1-6.41-5.18,23.79,23.79,0,0,1-4.2-7.68,29.34,29.34,0,0,1-1.49-9.43A43.46,43.46,0,0,1,455,201.05a44.52,44.52,0,0,1,5.68-11.27,63.14,63.14,0,0,1,8.3-9.58q4.71-4.45,9.94-9.07V144.5a38.75,38.75,0,0,1-8.81,10.4,18.24,18.24,0,0,1-11.7,4A19.5,19.5,0,0,1,442,150.7a28.43,28.43,0,0,1-4.35-9.53,48.21,48.21,0,0,1-1.47-12.43,121.12,121.12,0,0,1,1.18-16.7q1.18-8.4,2.61-15.16,1.65-7.89,3.8-15.27a16,16,0,0,0,.76-2.71,5.53,5.53,0,0,1,1.18-2.52,6.56,6.56,0,0,1,2.92-1.84,19.69,19.69,0,0,1,6.2-.72c2.59,0,4.27.46,5,1.39a4,4,0,0,1,.87,3.22,12.12,12.12,0,0,1-1.23,3.79,17.19,17.19,0,0,0-1.28,3.18q-1.43,5.84-2.56,10.66c-.75,3.22-1.39,6.45-1.9,9.68s-.91,6.63-1.18,10.14-.4,7.46-.39,11.86q0,8.61,2.52,13a7.81,7.81,0,0,0,7.12,4.41,8.82,8.82,0,0,0,5.89-2.36,23.17,23.17,0,0,0,4.92-6.3,49.93,49.93,0,0,0,3.84-9,74.38,74.38,0,0,0,2.56-10.6V83a15.94,15.94,0,0,0-.41-4.3,8.57,8.57,0,0,1-.41-2.46,2.9,2.9,0,0,1,1.59-2.51,7.19,7.19,0,0,1,3.84-1q5.24,0,8.25,2.71a8.42,8.42,0,0,1,3,6.51v73.67a89.67,89.67,0,0,0,10.53-14.42A81.45,81.45,0,0,0,513.39,122.27ZM473.16,226.16a4,4,0,0,0,3.69-2,13.75,13.75,0,0,0,1.69-4.77,32.43,32.43,0,0,0,.46-5.48V187.13a42.39,42.39,0,0,0-8.25,11.61q-3.12,6.47-3.12,15.89a20.2,20.2,0,0,0,1.48,8.24C470.11,225.05,471.45,226.16,473.16,226.16Z"/>
    <path class="cls-1" d="M49.19,2.74C.39,21.58-.21,91,0,100.51,1.25,149.14,19.39,160.79,41,161.93c15.79.84,29.87-11.28,36.64-25.52.67,18.28.25,24.19,8.16,24.15,5,0,11.52-2.51,11.52-5.45a2.93,2.93,0,0,0-.68-1.57c-.89-7.22-2-19.9-2.08-49.53a206.09,206.09,0,0,1,2.87-36.87c.89-4.29-3.28-5.53-6.89-5.53-4.33,0-9.1,1.28-9.4,4.21-4.63,41.42-11.18,78.5-37.67,78.54C24,144.36,17.24,121.92,18,91.1,19,54,39.57,14.3,66.55,19c20.23,3.52,17.61,25.27,16,30.38-1.4,4.41,4.15,5.34,8.66,5.45,3.44.09,7,.35,8-6.28C106.28,6.84,72.8-6.37,49.19,2.74Z"/>
  </g>
</svg>
